<?xml version="1.0" standalone="no"?>
<!DOCTYPE svg PUBLIC "-//W3C//DTD SVG 20010904//EN"
 "http://www.w3.org/TR/2001/REC-SVG-20010904/DTD/svg10.dtd">
<svg version="1.0" xmlns="http://www.w3.org/2000/svg"
 width="60" height="60" viewBox="0 0 1327.000000 822.000000"
 preserveAspectRatio="xMidYMid meet">

<g transform="translate(0.000000,822.000000) scale(0.100000,-0.100000)"
fill="#800000" stroke="none">
<path d="M1539 7282 c-109 -65 -209 -154 -228 -204 -7 -19 -7 -45 -1 -79 12
-62 20 -77 50 -92 13 -7 27 -25 32 -42 5 -16 13 -39 18 -50 12 -26 50 -159 50
-172 0 -6 -13 -16 -30 -23 -47 -19 -52 -32 -35 -80 22 -63 20 -70 -20 -70 -34
0 -35 -1 -35 -39 0 -38 -1 -39 -75 -74 -85 -41 -214 -121 -232 -145 -9 -11
-13 -55 -13 -138 0 -90 -7 -156 -24 -246 -14 -68 -32 -177 -40 -243 -8 -66
-28 -165 -45 -220 -17 -55 -40 -145 -52 -200 -11 -55 -41 -177 -65 -270 -37
-146 -60 -264 -90 -472 -5 -31 -2 -49 10 -67 11 -18 14 -37 10 -68 -12 -87 47
-255 114 -327 73 -77 101 -67 107 37 2 42 1 45 -41 70 -66 40 -86 117 -37 149
21 14 23 13 43 -35 22 -52 39 -66 65 -56 17 7 18 18 5 140 l-10 91 36 84 c19
46 39 88 45 93 5 6 9 -16 9 -60 0 -38 5 -123 10 -188 8 -92 7 -151 -5 -260
-24 -235 -30 -386 -15 -386 10 0 12 -18 7 -80 -7 -90 7 -280 23 -310 6 -11 24
-86 40 -166 16 -80 41 -182 55 -225 13 -44 54 -189 90 -323 35 -135 73 -266
84 -293 10 -26 31 -97 46 -157 24 -96 26 -114 15 -150 -21 -73 -63 -137 -128
-197 -46 -41 -66 -68 -72 -93 -12 -54 4 -61 134 -60 93 0 118 4 152 21 50 27
105 87 138 150 27 55 61 90 70 74 9 -14 -21 -125 -46 -175 -11 -22 -23 -65
-25 -97 -5 -52 -4 -58 18 -69 30 -17 243 -7 291 13 56 23 60 34 63 176 3 117
6 134 29 173 34 59 41 112 22 168 -21 60 -21 59 19 126 44 72 54 106 108 353
l42 196 -1 230 c-1 166 -5 242 -15 275 -10 32 -13 91 -11 209 1 90 5 167 8
170 3 3 31 8 62 11 l56 5 9 40 c11 50 -1 1042 -13 1145 -26 211 -32 295 -27
395 10 173 38 281 51 193 2 -18 9 -67 15 -109 6 -42 22 -111 36 -155 25 -76
26 -92 31 -379 3 -165 10 -315 14 -334 7 -24 5 -44 -6 -70 -29 -67 -52 -175
-43 -193 14 -26 37 -22 69 13 l28 31 16 -30 c23 -44 20 -79 -9 -108 -14 -14
-25 -33 -25 -43 0 -10 -11 -23 -24 -29 -24 -11 -44 -62 -31 -82 17 -28 100 7
170 71 48 45 105 150 106 200 0 19 6 57 13 84 10 43 15 50 35 47 l22 -2 -4
432 c-5 391 -7 443 -26 533 -12 55 -26 147 -31 205 -5 58 -21 143 -34 188 -20
66 -24 96 -19 145 3 38 0 92 -10 142 -9 44 -18 115 -21 157 -7 94 -29 153 -64
171 -15 8 -52 30 -84 49 -31 19 -116 58 -190 87 -137 55 -174 80 -229 155 -19
26 -29 51 -29 75 0 40 -23 81 -46 81 -11 0 -12 -4 -4 -19 5 -11 10 -53 10 -94
l0 -75 -38 5 c-47 6 -53 -1 -81 -97 -12 -41 -40 -113 -61 -160 -22 -47 -70
-157 -108 -245 -37 -88 -72 -160 -77 -160 -5 0 -18 47 -29 105 -16 78 -28 114
-48 140 -15 20 -40 65 -57 100 -27 58 -31 79 -37 200 -4 91 -3 149 5 178 13
46 26 54 36 21 4 -11 32 -45 62 -75 61 -60 96 -68 156 -38 92 47 224 174 233
224 4 19 13 42 20 50 20 23 44 97 44 135 0 18 -7 38 -16 45 -35 30 -36 48 -4
94 42 62 41 104 -5 155 -45 49 -129 87 -230 101 -148 22 -156 21 -206 -8z
m211 -3729 c0 -21 4 -54 10 -73 5 -19 14 -93 20 -164 6 -71 17 -147 25 -170 8
-22 15 -53 15 -68 0 -15 5 -39 10 -53 7 -19 6 -41 -5 -78 -15 -55 -18 -108
-18 -347 -1 -80 -1 -179 -1 -220 -1 -41 2 -87 6 -101 6 -20 2 -35 -15 -59 -30
-45 -42 -47 -57 -10 -11 27 -11 37 3 66 21 43 12 67 -41 115 -36 32 -41 42
-46 95 -11 102 -57 376 -76 446 -10 37 -27 83 -39 103 -11 20 -21 47 -21 61 0
14 -5 35 -11 46 -9 16 -6 30 16 71 25 45 29 64 36 191 11 198 4 186 105 186
l84 0 0 -37z"/>
<path d="M3180 7110 l0 -200 278 -2 277 -3 5 -760 5 -760 220 -3 c121 -1 230
0 243 3 l22 5 0 760 0 760 288 2 287 3 0 195 0 195 -812 3 -813 2 0 -200z"/>
<path d="M4992 6348 l3 -963 665 0 665 0 3 198 2 197 -412 0 c-227 0 -419 4
-426 8 -9 7 -12 52 -10 193 l3 184 354 3 c269 2 357 5 363 15 4 6 8 89 8 183
0 131 -3 174 -13 183 -9 7 -126 12 -363 13 l-349 3 0 170 0 170 425 5 425 5 3
198 2 197 -675 0 -675 0 2 -962z"/>
<path d="M7061 7288 c-12 -33 -135 -370 -191 -523 -44 -121 -120 -331 -394
-1079 -58 -159 -103 -293 -100 -297 6 -11 494 -12 510 -1 6 4 14 16 17 27 3
11 24 80 47 153 l41 132 314 0 313 0 22 -72 c12 -40 33 -111 48 -158 l27 -85
254 -3 c140 -1 258 1 263 6 7 7 -21 89 -141 412 -43 115 -154 417 -254 690
-35 96 -118 320 -183 498 l-118 322 -233 0 c-233 0 -234 0 -242 -22z m304
-775 c31 -98 72 -227 91 -287 19 -59 31 -112 28 -117 -3 -5 -84 -9 -180 -9
-135 0 -176 3 -180 13 -2 7 34 136 81 286 82 264 92 291 100 291 2 0 29 -80
60 -177z"/>
<path d="M8372 6348 l3 -963 234 -3 c176 -2 237 1 249 10 13 11 14 44 9 238
-4 124 -11 299 -16 390 -32 560 -35 681 -18 659 2 -2 100 -294 218 -649 l214
-645 140 -3 c77 -1 149 0 160 2 18 5 54 106 235 656 118 357 219 650 224 650
5 0 6 -40 2 -92 -12 -174 -38 -752 -43 -971 -4 -163 -2 -221 7 -232 10 -12 52
-15 239 -15 124 0 232 4 239 8 10 7 12 206 10 963 l-3 954 -325 0 -324 0 -29
-90 c-37 -115 -291 -926 -322 -1025 -31 -102 -43 -130 -54 -130 -5 0 -26 53
-46 118 -85 275 -137 439 -145 462 -5 14 -31 97 -58 185 -28 88 -73 233 -102
323 l-51 162 -324 0 -325 0 2 -962z"/>
<path d="M4100 4983 c-121 -6 -450 -35 -535 -47 l-90 -12 -3 -1697 -2 -1697
380 0 380 0 0 675 0 675 158 0 c260 0 349 -25 448 -124 98 -98 128 -171 214
-516 78 -310 143 -535 187 -647 l25 -63 397 0 396 0 -43 133 c-24 72 -86 292
-138 487 -121 454 -133 490 -206 638 -53 108 -71 134 -142 206 -52 52 -103 94
-143 115 -35 18 -63 36 -63 40 0 5 19 16 43 25 76 29 208 117 285 190 209 198
304 464 272 761 -40 379 -254 639 -629 764 -124 42 -308 77 -464 90 -114 10
-581 12 -727 4z m708 -593 c190 -53 298 -157 337 -321 30 -129 16 -250 -43
-362 -42 -82 -108 -143 -208 -192 -111 -55 -179 -66 -436 -72 l-228 -5 0 476
c0 372 3 478 13 481 34 13 219 23 347 20 107 -3 164 -9 218 -25z"/>
<path d="M7130 4983 c-207 -8 -607 -49 -627 -66 -10 -7 -13 -355 -13 -1681 0
-919 4 -1676 8 -1682 18 -28 435 -56 827 -57 470 0 763 39 1077 144 379 126
635 314 838 614 131 195 220 433 267 720 22 135 25 545 5 665 -69 415 -239
725 -520 951 -362 291 -783 402 -1506 397 -155 -1 -315 -3 -356 -5z m646 -594
c130 -13 262 -45 367 -89 319 -132 516 -423 557 -821 29 -285 -15 -596 -115
-806 -139 -294 -362 -464 -715 -544 -96 -22 -418 -37 -533 -25 l-67 8 0 1128
0 1128 42 7 c145 25 308 30 464 14z"/>
<path d="M9672 4953 c3 -10 217 -393 475 -851 l470 -833 -493 -866 c-272 -476
-494 -868 -494 -870 0 -1 197 -3 439 -3 l439 0 132 288 c178 385 331 729 376
843 20 52 41 98 45 103 4 5 146 -267 314 -605 169 -338 310 -617 314 -622 4
-4 206 -6 449 -5 l442 3 -501 865 c-276 476 -504 873 -506 882 -3 10 191 355
476 848 265 456 481 833 481 835 0 3 -199 4 -441 3 l-441 -3 -130 -280 c-137
-295 -276 -615 -349 -802 -24 -62 -47 -112 -52 -110 -4 1 -47 90 -96 197 -49
107 -175 375 -280 595 l-191 400 -441 3 c-417 2 -441 1 -437 -15z"/>
<path d="M9845 1173 c-46 -10 -77 -27 -94 -52 -41 -59 -33 -136 20 -187 28
-27 36 -29 109 -29 84 0 94 3 85 28 -5 12 -18 14 -63 10 -75 -6 -118 19 -128
73 -9 49 10 83 59 108 31 15 45 16 78 8 33 -8 41 -8 46 5 3 8 2 18 -3 23 -12
10 -83 19 -109 13z"/>
<path d="M10546 1170 c-84 -26 -120 -138 -69 -216 32 -50 134 -70 194 -39 41
22 69 71 69 123 0 61 -24 100 -73 123 -45 20 -75 22 -121 9z m102 -50 c89 -55
49 -180 -58 -180 -46 0 -90 47 -90 95 0 46 13 71 48 89 37 21 61 19 100 -4z"/>
<path d="M12480 1173 c-88 -18 -135 -121 -92 -202 28 -52 74 -73 149 -69 83 5
103 23 103 95 l0 53 -65 0 c-58 0 -65 -2 -65 -20 0 -17 7 -20 45 -20 40 0 45
-2 45 -23 0 -33 -19 -47 -62 -47 -54 0 -97 25 -114 66 -22 52 0 96 59 119 38
14 51 15 82 5 31 -10 39 -10 52 3 14 13 13 16 -3 25 -24 13 -102 21 -134 15z"/>
<path d="M10130 1035 l0 -135 90 0 c83 0 90 1 90 20 0 18 -7 20 -70 20 l-70 0
0 115 c0 108 -1 115 -20 115 -19 0 -20 -7 -20 -135z"/>
<path d="M10872 1153 c2 -14 15 -19 56 -21 l52 -3 0 -115 c0 -107 1 -114 20
-114 19 0 20 7 20 114 l0 115 47 3 c36 2 49 7 51 21 3 15 -8 17 -123 17 -115
0 -126 -2 -123 -17z"/>
<path d="M11270 1035 c0 -128 1 -135 20 -135 18 0 20 7 20 60 l0 60 80 0 80 0
0 -60 c0 -53 2 -60 20 -60 19 0 20 7 20 135 0 128 -1 135 -20 135 -18 0 -20
-7 -20 -55 l0 -56 -77 3 -78 3 -3 53 c-3 44 -6 52 -23 52 -18 0 -19 -8 -19
-135z"/>
<path d="M11710 1035 c0 -128 1 -135 20 -135 19 0 20 7 20 135 0 128 -1 135
-20 135 -19 0 -20 -7 -20 -135z"/>
<path d="M11940 1035 l0 -135 25 0 c24 0 24 1 27 105 l3 106 75 -105 c64 -90
79 -106 103 -106 l27 0 0 135 0 135 -25 0 c-24 0 -24 -1 -27 -102 l-3 -103
-74 103 c-64 88 -78 102 -103 102 l-28 0 0 -135z"/>
</g>
</svg>
