<?xml version="1.0" standalone="no"?>
<!DOCTYPE svg PUBLIC "-//W3C//DTD SVG 20010904//EN"
 "http://www.w3.org/TR/2001/REC-SVG-20010904/DTD/svg10.dtd">
<svg version="1.0" xmlns="http://www.w3.org/2000/svg"
 width="500.000000pt" height="375.000000pt" viewBox="0 0 500.000000 375.000000"
 preserveAspectRatio="xMidYMid meet">

<g transform="translate(0.000000,375.000000) scale(0.100000,-0.100000)"
fill="#000000" stroke="none">
<path d="M2472 3605 c-532 -64 -885 -200 -1091 -421 -121 -130 -176 -289 -153
-445 23 -160 114 -322 267 -475 130 -131 215 -186 347 -229 194 -63 488 -145
713 -200 379 -92 638 -137 916 -157 277 -19 355 2 394 106 14 37 14 62 -4 279
-11 132 -22 241 -24 243 -2 3 -85 -9 -183 -25 -382 -64 -625 -84 -858 -70
-327 19 -495 72 -681 216 -366 283 -405 587 -94 732 118 56 194 66 484 66 333
-1 533 -27 628 -85 55 -34 123 -108 158 -172 33 -61 34 -67 34 -173 0 -107 -1
-112 -36 -175 -30 -55 -55 -81 -157 -164 -67 -55 -121 -100 -119 -101 1 -1 52
2 112 6 141 11 284 29 573 76 l234 37 19 37 c57 113 87 378 60 535 -50 283
-390 467 -1009 543 -220 28 -393 33 -530 16z"/>
<path d="M1725 1829 c-110 -96 -248 -235 -348 -349 l-91 -105 92 -3 92 -3 0
-54 0 -55 -65 0 -65 0 0 -190 0 -190 -70 0 -70 0 0 190 0 190 -45 0 c-33 0
-45 -4 -45 -15 0 -10 10 -15 34 -15 l34 0 -53 -87 c-84 -141 -145 -296 -145
-370 0 -49 23 -97 60 -123 20 -14 95 -39 199 -65 l167 -42 20 104 20 103 -148
0 c-199 0 -197 19 3 22 l151 3 36 120 c33 113 35 130 39 298 l4 177 63 0 62 0
49 93 c56 108 139 238 203 320 25 31 43 58 41 60 -5 4 -144 47 -150 47 -2 0
-35 -28 -74 -61z"/>
<path d="M2053 1713 c-73 -96 -130 -179 -174 -258 -30 -53 -33 -66 -30 -127
l2 -68 -90 0 -91 0 0 -35 c0 -19 5 -35 10 -35 6 0 10 9 10 20 0 17 7 20 40 20
37 0 40 -2 30 -19 -9 -18 -6 -20 27 -23 23 -2 38 -8 37 -15 -1 -7 -2 -33 -2
-58 l-2 -45 -75 0 -75 0 0 -40 0 -40 95 0 95 0 0 -55 0 -55 -150 0 c-93 0
-150 -4 -150 -10 0 -5 16 -10 35 -10 38 0 41 -6 26 -58 l-10 -32 541 2 541 3
18 50 c10 28 18 82 19 120 0 39 5 102 9 140 5 39 7 71 6 73 -1 1 -22 -52 -46
-118 l-44 -121 -40 3 -40 3 -40 118 -41 119 4 -141 5 -141 -62 0 -61 0 0 245
0 245 73 0 72 0 44 -128 c44 -128 61 -163 61 -126 0 10 19 72 41 137 l42 117
73 0 74 0 0 -245 0 -245 -45 0 c-25 0 -45 -4 -45 -10 0 -5 25 -10 55 -10 l55
0 0 172 0 171 46 81 c26 45 76 125 111 179 36 54 63 100 61 102 -1 1 -97 21
-213 44 -217 43 -513 111 -670 156 -49 13 -93 25 -96 25 -4 0 -33 -35 -66 -77z
m211 -576 c38 -127 71 -238 73 -245 4 -10 -12 -12 -69 -10 l-73 3 -9 48 -9 47
-68 0 -67 0 -7 -38 c-10 -60 -15 -63 -87 -60 l-64 3 53 175 c29 96 62 205 74
243 l20 67 82 0 82 0 69 -233z"/>
<path d="M2092 1180 c-7 -34 -15 -67 -19 -75 -4 -12 4 -15 34 -15 l39 0 -15
75 c-9 41 -18 75 -21 75 -3 0 -12 -27 -18 -60z"/>
<path d="M4161 1334 c-1 -6 10 -36 23 -65 14 -30 25 -49 25 -43 1 6 -10 36
-23 65 -14 30 -25 49 -25 43z"/>
<path d="M4341 1235 c-42 -82 -52 -110 -45 -125 8 -17 19 -1 71 105 51 102 60
125 45 125 -12 0 -34 -33 -71 -105z"/>
<path d="M3487 1242 c8 -61 -4 -107 -38 -143 -27 -29 -29 -35 -18 -61 6 -16
16 -31 21 -34 6 -4 5 3 -1 15 -10 19 -8 26 19 52 16 17 33 42 36 55 9 35 0
132 -14 146 -7 7 -9 -1 -5 -30z"/>
<path d="M3240 1205 c0 -42 3 -55 15 -55 11 0 15 12 15 45 l0 45 43 0 c31 0
38 3 27 10 -8 5 -34 10 -57 10 l-43 0 0 -55z"/>
<path d="M3710 1126 c0 -172 18 -184 22 -13 l3 122 35 -3 c46 -4 27 16 -23 25
l-37 6 0 -137z"/>
<path d="M3960 1224 c16 -40 12 -170 -6 -212 -38 -93 -116 -132 -261 -132 -49
0 -83 -4 -83 -10 0 -6 43 -10 110 -10 152 0 205 24 253 115 28 53 30 193 4
243 -21 38 -30 42 -17 6z"/>
<path d="M4340 1020 c11 -22 23 -40 25 -40 3 0 -4 18 -15 40 -11 22 -23 40
-25 40 -3 0 4 -18 15 -40z"/>
<path d="M3240 960 l0 -80 -50 0 c-27 0 -50 -4 -50 -10 0 -6 28 -10 65 -10
l65 0 0 80 c0 66 3 80 16 80 8 0 12 5 9 10 -3 6 -17 10 -31 10 -23 0 -24 -2
-24 -80z"/>
<path d="M4162 961 l-33 -81 -49 0 c-27 0 -52 -4 -55 -10 -4 -6 19 -10 62 -10
l68 0 29 71 c20 51 26 76 19 91 -7 16 -14 6 -41 -61z"/>
<path d="M3490 930 c6 -11 13 -20 16 -20 2 0 0 9 -6 20 -6 11 -13 20 -16 20
-2 0 0 -9 6 -20z"/>
<path d="M4400 911 c16 -30 14 -31 -50 -31 -33 0 -60 -4 -60 -10 0 -6 30 -10
70 -10 39 0 70 2 70 5 0 10 -30 65 -36 65 -2 0 0 -9 6 -19z"/>
<path d="M3510 892 c0 -8 -21 -12 -62 -12 -43 0 -59 -3 -52 -10 6 -6 40 -10
77 -8 63 3 65 4 51 22 -8 11 -14 14 -14 8z"/>
<path d="M1607 742 c-7 -10 -57 -259 -57 -280 0 -32 42 -102 73 -121 20 -12
186 -54 434 -110 352 -79 406 -89 439 -80 74 21 114 88 114 194 0 68 26 235
50 323 11 40 20 74 20 77 0 8 -1068 6 -1073 -3z"/>
<path d="M2980 611 c-14 -28 -12 -57 6 -75 18 -18 60 -21 69 -6 4 7 -2 9 -18
5 -25 -7 -57 15 -57 39 0 21 24 44 50 49 21 4 20 4 -7 6 -23 1 -35 -5 -43 -18z"/>
<path d="M3170 575 c0 -53 1 -55 28 -55 23 1 24 2 10 11 -13 7 -18 23 -18 54
0 25 -4 45 -10 45 -5 0 -10 -25 -10 -55z"/>
<path d="M3343 604 c-15 -24 -15 -29 -2 -53 28 -49 109 -32 109 24 0 54 -77
75 -107 29z m77 2 c28 -35 -11 -93 -47 -70 -36 22 -23 84 17 84 10 0 23 -7 30
-14z"/>
<path d="M3568 623 c7 -3 12 -24 12 -54 0 -27 5 -49 10 -49 6 0 10 22 10 49 0
30 5 51 13 54 6 3 -4 5 -23 5 -19 0 -29 -2 -22 -5z"/>
<path d="M3743 575 c-1 -42 1 -51 6 -30 4 21 13 31 29 33 19 3 22 -1 22 -27 0
-17 5 -31 10 -31 6 0 10 25 10 55 0 30 -4 55 -10 55 -5 0 -10 -9 -10 -20 0
-30 -47 -28 -53 3 -2 12 -4 -5 -4 -38z"/>
<path d="M3953 575 c0 -33 2 -45 4 -27 2 18 2 45 0 60 -2 15 -4 0 -4 -33z"/>
<path d="M4080 575 c0 -30 5 -55 10 -55 6 0 10 19 10 43 l1 42 39 -45 40 -45
-1 60 c-2 52 -3 55 -8 22 l-6 -38 -34 35 c-19 20 -39 36 -43 36 -4 0 -8 -25
-8 -55z"/>
<path d="M4313 604 c-15 -24 -15 -29 -2 -53 18 -33 67 -41 86 -15 19 27 16 44
-9 44 -17 0 -20 -3 -9 -9 18 -12 7 -41 -17 -41 -24 0 -42 19 -42 46 0 30 24
48 56 40 17 -5 23 -3 19 4 -13 21 -64 11 -82 -16z"/>
</g>
</svg>
